<svg height="64" preserveAspectRatio="none" viewBox="0 0 64 64" width="64" xmlns="http://www.w3.org/2000/svg" xmlns:xlink="http://www.w3.org/1999/xlink"><radialGradient id="a" cx="32" cy="34.125" gradientUnits="userSpaceOnUse" r="26.111092"><stop offset="0" stop-color="#c59d62"/><stop offset="1" stop-color="#b08046"/></radialGradient><radialGradient id="b" cx="32" cy="34.203751" gradientTransform="matrix(1 0 0 .7025142 0 10.175128)" gradientUnits="userSpaceOnUse" r="26.567095"><stop offset=".6150442" stop-color="#ffe9ca"/><stop offset="1" stop-color="#f7e0ba"/></radialGradient><linearGradient id="c"><stop offset=".6814159" stop-color="#f5b32c"/><stop offset="1" stop-color="#805d17"/></linearGradient><radialGradient id="d" cx="45.061112" cy="34.084168" gradientTransform="matrix(.9875658 0 0 1 .762434 0)" gradientUnits="userSpaceOnUse" r="6.604008" xlink:href="#c"/><linearGradient id="e"><stop offset="0" stop-color="#fff"/><stop offset="1" stop-color="#fff" stop-opacity=".3"/></linearGradient><linearGradient id="f" gradientUnits="userSpaceOnUse" x1="41.989582" x2="41.989582" xlink:href="#e" y1="28.904553" y2="33.598579"/><linearGradient id="g" gradientUnits="userSpaceOnUse" x1="49.130341" x2="49.130341" xlink:href="#e" y1="36.471645" y2="39.061451"/><radialGradient id="h" cx="18.200632" cy="34.084168" gradientTransform="matrix(.9875658 0 0 1 .762434 0)" gradientUnits="userSpaceOnUse" r="6.604008" xlink:href="#c"/><linearGradient id="i" gradientUnits="userSpaceOnUse" x1="15.463094" x2="15.463094" xlink:href="#e" y1="28.904553" y2="33.598579"/><linearGradient id="j" gradientUnits="userSpaceOnUse" x1="22.603851" x2="22.603851" xlink:href="#e" y1="36.471645" y2="39.061451"/><radialGradient id="k" cx="32" cy="47.131096" gradientTransform="matrix(1 0 0 2.3254664 0 -63.926788)" gradientUnits="userSpaceOnUse" r="6.692463"><stop offset="0" stop-color="#f8eb00"/><stop offset="1" stop-color="#f09400"/></radialGradient><radialGradient id="l" cx="32" cy="14.315439" gradientTransform="matrix(1 0 0 .8588357 0 2.020829)" gradientUnits="userSpaceOnUse" r="17.891012"><stop offset=".6150442" stop-color="#b08046"/><stop offset="1" stop-color="#c59d62"/></radialGradient><linearGradient id="m"><stop offset="0" stop-color="#f7e0ba"/><stop offset=".6150442" stop-color="#ffe9ca"/><stop offset="1" stop-color="#f7e0ba"/></linearGradient><linearGradient id="n" gradientUnits="userSpaceOnUse" x1="44.25" x2="44.25" xlink:href="#m" y1="8.75" y2="28.4375"/><linearGradient id="o" gradientTransform="matrix(-1 0 0 1 64 0)" gradientUnits="userSpaceOnUse" x1="44.25" x2="44.25" xlink:href="#m" y1="8.75" y2="28.4375"/><path d="m54.7912598 8.7499962s.8192711.7227211.7399902 1.7620888c.2417603-.1541176.5529785-.2595787.96875-.2595787 0 0-1.1619301 3.68853-4.3930702 7.7529297 5.9260902 3.9986495 9.6430702 9.7393112 9.6430702 16.1195602 0 12.0812416-13.319519 21.875-29.75 21.875s-29.75-9.7937584-29.75-21.875c0-6.380249 3.71698-12.1209106 9.6430702-16.1195602-3.2311401-4.0643387-4.3930702-7.7529297-4.3930702-7.7529297.4158301 0 .7269897.1054611.96875.2595787-.0792799-1.0393677.7399902-1.7620888.7399902-1.7620888.0521898.0634193.09869.130619.1480093.1958008.1771784-.1197166.416647-.1741638.7140007-.17416 2.1144505.0000191 7.1547403 2.7533112 13.5206194 4.3703308 2.6673012-.5770226 5.4872399-.8919716 8.4086304-.8919716s5.7413292.314949 8.4086304.8919716c6.3663216-1.6171341 11.4064293-4.370697 13.5206184-4.3703308.2971497.0000496.536911.0545044.7140007.17416.0493202-.0651818.0958214-.1323815.1480103-.1958008m-.1145516-1.4345398-.3923531.4767799c-.1136208-.0136948-.2320023-.0205765-.3549347-.0205994-.0001526 0-.0004196 0-.0005684 0-1.2377853-.000042-3.0225525.6850243-5.4928017 1.6331482-2.2323608.8568268-4.9974747 1.9181366-8.0486526 2.7101898-2.7327613-.5740012-5.5534019-.8649787-8.3873977-.8649787s-5.6546326.2909775-8.387394.8649788c-3.0511246-.7920341-5.8163071-1.8533211-8.0487261-2.7101288-2.4704199-.9481506-4.2553396-1.6332016-5.4931202-1.6332092-.1230211 0-.2414303.0068703-.3551359.0205727l-.392334-.4767532-.7760896.6846312c-.0806446.0711365-.5737762.5262375-.8664126 1.2572861-.0595608-.0032425-.1198335-.0048675-.1807876-.0048675h-1.3634501l.4096498 1.3004494c.0463428.14711 1.0971608 3.4196129 3.918664 7.2333069-5.8708705 4.2845382-9.2148637 10.1888694-9.2148637 16.3387336 0 12.6133194 13.7943897 22.875 30.75 22.875s30.75-10.2616806 30.75-22.875c0-6.1498642-3.343998-12.0541992-9.2148705-16.3387375 2.8215027-3.8137436 3.8723297-7.0861931 3.9186707-7.2332916l.4096489-1.3004608h-1.3634491c-.060955 0-.1212273.0016251-.1807861.0048676-.2926369-.7310486-.7857704-1.1861496-.8664131-1.2572861z" fill="#595757"/><ellipse cx="32" cy="34.125" fill="url(#a)" rx="29.75" ry="21.875"/><ellipse cx="32" cy="46.08625" fill="#f7e0ba" rx="15.2775" ry="7.63875"/><path d="m43.9823532 19.7749996c-4.8773499 0-9.2056618 2.1959743-11.9823532 5.5947056-2.7766914-3.3987312-7.1050053-5.5947056-11.9823532-5.5947056-8.3824205 0-15.1776466 6.4599495-15.1776466 14.428751 0 7.9687157 6.7952261 14.4287491 15.1776466 14.4287491 4.8773479 0 9.2056618-2.1959763 11.9823532-5.5947037 2.7766914 3.3987274 7.1050034 5.5947037 11.9823532 5.5947037 8.3824196 0 15.1776466-6.4600334 15.1776466-14.4287491 0-7.9688015-6.795227-14.428751-15.1776466-14.428751z" fill="url(#b)"/><ellipse cx="45.263245" cy="34.084168" fill="#231815" rx="7.736755" ry="7.834167"/><ellipse cx="45.263245" cy="34.084168" fill="url(#d)" rx="6.521893" ry="6.604008"/><ellipse cx="45.263245" cy="34.084168" fill="#231815" rx="4.379899" ry="4.435045"/><ellipse cx="41.989582" cy="31.251564" fill="url(#f)" rx="2.365058" ry="2.347013"/><ellipse cx="49.130341" cy="37.766548" fill="url(#g)" rx="1.273524" ry="1.294904"/><ellipse cx="18.736755" cy="34.084168" fill="#231815" rx="7.736755" ry="7.834167"/><ellipse cx="18.736755" cy="34.084168" fill="url(#h)" rx="6.521893" ry="6.604008"/><ellipse cx="18.736755" cy="34.084168" fill="#231815" rx="4.379899" ry="4.435045"/><ellipse cx="15.463094" cy="31.251564" fill="url(#i)" rx="2.365058" ry="2.347013"/><ellipse cx="22.603851" cy="37.766548" fill="url(#j)" rx="1.273524" ry="1.294904"/><path d="m37.25 43.2833328c0 2.6417618-5.25 9.5666656-5.25 9.5666656s-5.25-6.9249039-5.25-9.5666656 2.3505058-4.7833328 5.25-4.7833328 5.25 2.141571 5.25 4.7833328z" fill="url(#k)"/><path d="m32 54.5048828-.796875-1.0507813c-.9106445-1.2011718-5.453125-7.336914-5.453125-10.1708984 0-3.1884765 2.8037109-5.7832031 6.25-5.7832031s6.25 2.5947266 6.25 5.7832031c0 2.8339844-4.5429688 8.9697266-5.453125 10.1708984zm0-15.0048828c-2.3432617 0-4.25 1.6972656-4.25 3.7832031 0 1.4628906 2.3535156 5.2314453 4.25 7.8789063 1.8964844-2.6474609 4.25-6.4160156 4.25-7.8789063 0-2.0859375-1.90625-3.7832031-4.25-3.7832031z" fill="#e75513"/><path d="m54.7912712 9.0308714c-1.6279793-1.75-11.3956795 5.25-22.7912712 5.25s-21.1632938-7-22.7912712-5.25c-1.627893 1.75 0 8.750001 9.7677011 14.000001s11.3955917 5.25 13.023571 5.25 3.2558708 0 13.023571-5.25 11.3955947-12.250001 9.7676993-14.000001z" fill="url(#l)"/><path d="m55.5312614 10.5120697c.0792962-1.0393438-.7399902-1.7620697-.7399902-1.7620697-1.7088127 2.0770273-1.7912712 5.0820627-7.0412712 10.4513817s-15.75 9.2361183-15.75 9.2361183c19.25-1.5025177 24.5-18.1849823 24.5-18.1849823-.4157944 0-.7270012.1054811-.9687386.259552z" fill="url(#n)"/><path d="m8.4687376 10.5120697c-.0792971-1.0393438.7399902-1.7620697.7399902-1.7620697 1.7088137 2.0770273 1.7912722 5.0820627 7.0412722 10.4513817s15.75 9.2361183 15.75 9.2361183c-19.25-1.5025177-24.5-18.1849823-24.5-18.1849823.4157958 0 .7270021.1054811.9687376.259552z" fill="url(#o)"/></svg>